<?xml version="1.0" encoding="utf-8"?>
<!-- Generator: Adobe Illustrator 23.0.1, SVG Export Plug-In . SVG Version: 6.00 Build 0)  -->
<svg version="1.1" id="Layer_1" xmlns="http://www.w3.org/2000/svg" xmlns:xlink="http://www.w3.org/1999/xlink" x="0px" y="0px"
	 viewBox="0 0 124 31" style="enable-background:new 0 0 124 31;" xml:space="preserve">
<style type="text/css">
	.st0{fill:#b2ff33;}
</style>
<g id="SHURE_Logo_w_x2F_Tagline__x28_RGB_x29_">
	<path id="SHURE_Tagline_1_" class="st0" d="M117.77,25.34l0.85,2.23l1.41-2.23h1.1l-2.16,3.25l-0.29,2.33h-0.95l0.29-2.33
		l-1.36-3.25H117.77z M114.88,30.92l-0.81-2.27h-1.1l-0.28,2.27h-0.95l0.69-5.58h1.92c1.3,0,2.01,0.56,1.88,1.67
		c-0.1,0.77-0.53,1.26-1.21,1.5l0.91,2.42H114.88z M113.98,27.85c0.8,0,1.22-0.21,1.3-0.84c0.08-0.63-0.29-0.85-1.09-0.85h-0.91
		l-0.21,1.69H113.98z M106.3,30.92l2.65-5.58h0.9l1.28,5.58h-1.01l-0.24-1.16h-2.04l-0.53,1.16H106.3z M108.21,28.95h1.51
		l-0.47-2.26L108.21,28.95z M106.48,25.34l-0.69,5.58h-0.84l-1.83-3.79l-0.47,3.79h-0.92l0.69-5.58h0.82l1.85,3.84l0.47-3.84H106.48
		z M100.61,30.92h-0.95l0.69-5.58h0.95L100.61,30.92z M94.66,30.92l0.69-5.58h1.91c1.27,0,2.04,0.67,1.82,2.46l-0.08,0.66
		c-0.22,1.79-1.16,2.46-2.42,2.46H94.66z M98.04,28.46l0.08-0.66c0.14-1.15-0.16-1.64-0.97-1.64h-0.96l-0.49,3.96h0.96
		C97.47,30.11,97.9,29.61,98.04,28.46z M92.95,30.92l-0.81-2.27h-1.1l-0.28,2.27h-0.95l0.69-5.58h1.92c1.3,0,2.01,0.56,1.88,1.67
		c-0.09,0.77-0.53,1.26-1.21,1.5L94,30.92H92.95z M92.05,27.85c0.8,0,1.22-0.21,1.3-0.84c0.08-0.63-0.29-0.85-1.09-0.85h-0.91
		l-0.21,1.69H92.05z M86.83,30.99c-1.26,0-2.02-0.75-1.8-2.51l0.09-0.71c0.22-1.76,1.16-2.51,2.42-2.51c1.27,0,2.03,0.75,1.81,2.51
		l-0.09,0.71C89.05,30.24,88.1,30.99,86.83,30.99z M85.98,28.49c-0.15,1.21,0.2,1.69,0.95,1.69c0.75,0,1.23-0.49,1.38-1.69
		l0.09-0.71c0.15-1.21-0.21-1.69-0.96-1.69c-0.75,0-1.22,0.49-1.37,1.69L85.98,28.49z M79.8,30.92l2.65-5.58h0.9l1.28,5.58h-1.01
		l-0.24-1.16h-2.04l-0.53,1.16H79.8z M81.71,28.95h1.51l-0.47-2.26L81.71,28.95z M78.38,30.92l-0.81-2.27h-1.1l-0.28,2.27h-0.95
		l0.69-5.58h1.92c1.3,0,2.01,0.56,1.88,1.67c-0.09,0.77-0.53,1.26-1.21,1.5l0.91,2.42H78.38z M77.48,27.85c0.8,0,1.22-0.21,1.3-0.84
		c0.08-0.63-0.29-0.85-1.09-0.85h-0.91l-0.21,1.69H77.48z M75.45,25.34l-0.1,0.82h-1.62l-0.59,4.76h-0.95l0.59-4.76h-1.63l0.1-0.82
		H75.45z M66.22,30.92l1.99-2.88l-1.13-2.7h1.04l0.77,1.91l1.25-1.91h1.03l-1.8,2.7l1.28,2.88h-1.03l-0.94-2.03l-1.43,2.03H66.22z
		 M66.82,25.34l-0.1,0.82h-2.51l-0.18,1.47h2.27l-0.1,0.81h-2.27l-0.21,1.67h2.51l-0.1,0.81h-3.46l0.69-5.58H66.82z M54.96,30.92
		l0.69-5.58h1.91c1.27,0,2.04,0.67,1.82,2.46l-0.08,0.66c-0.22,1.79-1.16,2.46-2.42,2.46H54.96z M58.35,28.46l0.08-0.66
		c0.14-1.15-0.16-1.64-0.97-1.64H56.5l-0.49,3.96h0.96C57.78,30.11,58.2,29.61,58.35,28.46z M54.81,25.34l-0.69,5.58h-0.84
		l-1.83-3.79l-0.47,3.79h-0.92l0.69-5.58h0.82l1.85,3.84l0.47-3.84H54.81z M49.92,25.34l-0.41,3.32c-0.2,1.65-1.15,2.34-2.4,2.34
		c-1.25,0-2.03-0.69-1.83-2.33l0.41-3.33h0.95l-0.41,3.33c-0.13,1.07,0.2,1.51,0.98,1.51c0.78,0,1.22-0.45,1.35-1.51l0.41-3.33
		H49.92z M42.18,30.99c-1.26,0-2.02-0.75-1.8-2.51l0.09-0.71c0.22-1.76,1.16-2.51,2.42-2.51c1.27,0,2.03,0.75,1.81,2.51l-0.09,0.71
		C44.4,30.24,43.45,30.99,42.18,30.99z M41.33,28.49c-0.15,1.21,0.2,1.69,0.95,1.69c0.75,0,1.23-0.49,1.38-1.69l0.09-0.71
		c0.15-1.21-0.21-1.69-0.96-1.69c-0.75,0-1.22,0.49-1.37,1.69L41.33,28.49z M39.28,26.69c-0.23-0.38-0.51-0.61-1.14-0.61
		c-0.58,0-0.96,0.26-1.02,0.73c-0.07,0.53,0.34,0.74,1.1,0.92c1.11,0.24,1.65,0.66,1.52,1.67c-0.1,0.83-0.76,1.6-2.12,1.6
		c-0.97,0-1.61-0.29-2-0.92l0.81-0.51c0.29,0.4,0.6,0.61,1.24,0.61c0.78,0,1.07-0.34,1.12-0.74c0.05-0.45-0.17-0.72-1.12-0.93
		c-1.06-0.23-1.61-0.74-1.5-1.69c0.1-0.84,0.75-1.55,2.07-1.55c0.9,0,1.5,0.3,1.82,0.92L39.28,26.69z"/>
	<path id="SHURE_Wordmark_2_" class="st0" d="M100.15,19.89l-0.36,2.9L83.92,13.3l-0.81,6.59h-8.45l1.6-12.96h13.91l0.3-2.44
		l-13.91,0l0.55-4.48h17.7c2.63,0,4.58,2.57,4.51,4.79c-0.07,2.04-1.12,3.81-2.77,4.96c-1.11,0.77-3.14,1.35-3.14,1.35l7.35,3.73
		l1.83-14.83l21.4,0l-0.55,4.48l-11.53,0l-0.3,2.44h11.53l-0.61,4.94l-11.53,0l-0.33,2.64h11.53l-0.66,5.38H100.15z M64.51,0.01
		l-1.69,13.73h-2.61L61.9,0.01h-9.85l-1.28,10.37c-0.71,6.47,3.21,10.37,9.58,10.37h0.7c7.22-0.33,11.36-5.53,12.13-10.37
		l1.28-10.37H64.51z M35.85,6.92l0.85-6.92h-9.67l-2.45,19.88h9.67l0.86-6.97h3.03l-0.86,6.97h9.68l2.45-19.88h-9.68l-0.85,6.92
		H35.85z M16.86,19.89c4.41,0.01,6.85-3.38,6.87-6.59c0.01-1.73-0.64-2.9-2.6-3.84c-1.83-0.86-8.52-3.69-11.55-4.97l14.44,0
		l0.55-4.48H7.43C4.2,0.01,1.65,2.83,1.65,5.93c0,1.79,0.88,3.55,2.96,4.58l9.79,4l-13.74,0L0,19.89H16.86z"/>
</g>
</svg>
